<?xml version="1.0"?>
<svg xmlns="http://www.w3.org/2000/svg" xmlns:xlink="http://www.w3.org/1999/xlink" version="1.1" id="Capa_1" x="0px" y="0px" viewBox="0 0 512 512" style="enable-background:new 0 0 512 512;" xml:space="preserve" width="512px" height="512px" class=""><g><g>
	<path style="fill:#F36639" d="M512,256c0,68.38-26.63,132.67-74.98,181.02c-27.11,27.11-59.23,47.39-94.28,59.98   c-27.45,9.86-56.7,15-86.74,15c-68.38,0-132.67-26.63-181.02-74.98C26.63,388.67,0,324.38,0,256S26.63,123.33,74.98,74.98   C123.33,26.63,187.62,0,256,0c68.38,0,132.67,26.63,181.02,74.98S512,187.62,512,256z" data-original="#0087FF" class="" data-old_color="#0087FF"/>
	<path style="fill:#F36639" d="M512,256c0,68.38-26.63,132.67-74.98,181.02c-27.11,27.11-59.23,47.39-94.28,59.98   c-27.45,9.86-56.7,15-86.74,15V0c68.38,0,132.67,26.63,181.02,74.98S512,187.62,512,256z" data-original="#4B5BE5" class="" data-old_color="#4B5BE5"/>
	<path style="fill:#FFFFFF" d="M448.5,256c0,51.419-20.024,99.762-56.381,136.119c-20.386,20.385-44.538,35.635-70.894,45.102   C300.583,444.635,278.589,448.5,256,448.5c-51.419,0-99.762-20.025-136.119-56.381C83.525,355.762,63.5,307.419,63.5,256   s20.025-99.762,56.381-136.119C156.238,83.525,204.581,63.5,256,63.5c51.418,0,99.762,20.025,136.119,56.381   S448.5,204.581,448.5,256z" data-original="#D8EAFF" class="" data-old_color="#D8EAFF"/>
	<path style="fill:#FFFFFF" d="M448.5,256c0,51.419-20.024,99.762-56.381,136.119c-20.386,20.385-44.538,35.635-70.894,45.102   C300.583,444.635,278.589,448.5,256,448.5v-385c51.418,0,99.762,20.025,136.119,56.381S448.5,204.581,448.5,256z" data-original="#B7D9FB" class="" data-old_color="#B7D9FB"/>
	<polygon style="fill:#F36639" points="326.52,309.86 304.54,330.28 256,278.03 241,261.89 241,134.08 271,134.08 271,250.11  " data-original="#FE5957" class="active-path" data-old_color="#FE5957"/>
	<polygon style="fill:#F36639" points="304.54,330.28 256,278.03 256,134.08 271,134.08 271,250.11 326.52,309.86  " data-original="#FC1C5C" class="" data-old_color="#FC1C5C"/>
</g></g> </svg>
